<svg width="174" height="42" viewBox="0 0 174 42" fill="none" xmlns="http://www.w3.org/2000/svg">
<path opacity="0.5" d="M40.0652 2.25671L30.2601 36.9917C30.2102 37.1494 30.0108 37.1967 29.8945 37.0863L23.3301 30.8583L28.2492 13.4514C28.2991 13.2937 28.1495 13.1518 27.9833 13.1991L9.63617 17.8662L3.10498 11.6697C2.98865 11.5593 3.03851 11.3701 3.20469 11.3228L39.7993 2.00444C39.9655 1.97291 40.115 2.11481 40.0652 2.25671Z" fill="#00B37E"/>
<path opacity="0.5" d="M23.3297 30.858L20.8037 39.8452C20.7538 40.0029 20.5544 40.0502 20.4381 39.9398L0.0634003 20.6251C-0.0529313 20.5147 -0.00307518 20.3255 0.163113 20.2782L9.63583 17.8658L23.3297 30.858Z" fill="#00B37E"/>
<path d="M28.2484 13.4511L23.3292 30.858L9.63533 17.8659L27.9825 13.1988C28.1487 13.1515 28.2982 13.2934 28.2484 13.4511Z" fill="#00B37E"/>
<path d="M65.0481 23.9157V11.3104H68.7835V23.9157C68.7835 25.1317 68.5169 26.1769 67.9839 27.0514C67.4509 27.9176 66.7221 28.5839 65.7977 29.0503C64.8815 29.5167 63.8488 29.7499 62.6994 29.7499C61.5085 29.7499 60.4549 29.55 59.5388 29.1502C58.6226 28.7504 57.9022 28.1383 57.3775 27.3138C56.8528 26.4809 56.5904 25.4273 56.5904 24.1531H60.3508C60.3508 24.8194 60.4424 25.3482 60.6256 25.7397C60.8172 26.1311 61.0879 26.4101 61.4377 26.5767C61.7875 26.7432 62.2081 26.8265 62.6994 26.8265C63.1742 26.8265 63.5864 26.7141 63.9362 26.4892C64.286 26.2644 64.5567 25.9354 64.7483 25.5023C64.9482 25.0692 65.0481 24.5403 65.0481 23.9157ZM86.7856 11.3104V29.5H83.0378L75.7295 17.307V29.5H71.9816V11.3104H75.7295L83.0503 23.5159V11.3104H86.7856ZM98.1291 11.3104H101.302L105.975 24.6653L110.647 11.3104H113.82L107.249 29.5H104.7L98.1291 11.3104ZM96.4176 11.3104H99.5783L100.153 24.328V29.5H96.4176V11.3104ZM112.371 11.3104H115.544V29.5H111.796V24.328L112.371 11.3104ZM118.03 22.8788V22.6164C118.03 21.6253 118.172 20.7134 118.455 19.8805C118.738 19.0393 119.15 18.3106 119.692 17.6943C120.233 17.078 120.899 16.5991 121.691 16.2576C122.482 15.9078 123.39 15.7329 124.414 15.7329C125.438 15.7329 126.35 15.9078 127.15 16.2576C127.95 16.5991 128.62 17.078 129.161 17.6943C129.711 18.3106 130.127 19.0393 130.411 19.8805C130.694 20.7134 130.835 21.6253 130.835 22.6164V22.8788C130.835 23.8616 130.694 24.7735 130.411 25.6147C130.127 26.4476 129.711 27.1763 129.161 27.801C128.62 28.4173 127.954 28.8962 127.162 29.2377C126.371 29.5791 125.463 29.7499 124.439 29.7499C123.415 29.7499 122.503 29.5791 121.703 29.2377C120.912 28.8962 120.241 28.4173 119.692 27.801C119.15 27.1763 118.738 26.4476 118.455 25.6147C118.172 24.7735 118.03 23.8616 118.03 22.8788ZM121.628 22.6164V22.8788C121.628 23.4451 121.678 23.974 121.778 24.4654C121.878 24.9568 122.036 25.3899 122.253 25.7646C122.478 26.1311 122.769 26.4184 123.127 26.6266C123.485 26.8349 123.923 26.939 124.439 26.939C124.939 26.939 125.368 26.8349 125.726 26.6266C126.084 26.4184 126.371 26.1311 126.588 25.7646C126.804 25.3899 126.963 24.9568 127.063 24.4654C127.171 23.974 127.225 23.4451 127.225 22.8788V22.6164C127.225 22.0668 127.171 21.5504 127.063 21.0673C126.963 20.576 126.8 20.1429 126.575 19.7681C126.359 19.385 126.071 19.0851 125.713 18.8686C125.355 18.6521 124.922 18.5438 124.414 18.5438C123.906 18.5438 123.473 18.6521 123.115 18.8686C122.765 19.0851 122.478 19.385 122.253 19.7681C122.036 20.1429 121.878 20.576 121.778 21.0673C121.678 21.5504 121.628 22.0668 121.628 22.6164ZM136.57 18.8686V29.5H132.972V15.9828H136.345L136.57 18.8686ZM136.045 22.2666H135.07C135.07 21.2672 135.2 20.3677 135.458 19.5682C135.716 18.7603 136.078 18.0732 136.545 17.5069C137.011 16.9322 137.565 16.495 138.206 16.1951C138.856 15.887 139.58 15.7329 140.38 15.7329C141.013 15.7329 141.592 15.8245 142.116 16.0077C142.641 16.191 143.091 16.4825 143.466 16.8822C143.849 17.282 144.14 17.8109 144.34 18.4688C144.548 19.1268 144.652 19.9305 144.652 20.8799V29.5H141.03V20.8675C141.03 20.2678 140.946 19.8014 140.78 19.4683C140.613 19.1351 140.367 18.9019 140.043 18.7687C139.726 18.6271 139.335 18.5563 138.868 18.5563C138.385 18.5563 137.965 18.6521 137.606 18.8436C137.257 19.0352 136.965 19.3017 136.732 19.6432C136.507 19.9763 136.336 20.3677 136.22 20.8175C136.103 21.2672 136.045 21.7503 136.045 22.2666ZM153.61 29.7499C152.56 29.7499 151.619 29.5833 150.786 29.2501C149.954 28.9087 149.246 28.4381 148.663 27.8385C148.088 27.2388 147.647 26.5434 147.338 25.7521C147.03 24.9526 146.876 24.1031 146.876 23.2036V22.7039C146.876 21.6795 147.022 20.7425 147.313 19.893C147.605 19.0435 148.021 18.3064 148.563 17.6818C149.112 17.0571 149.779 16.5782 150.562 16.2451C151.344 15.9036 152.227 15.7329 153.21 15.7329C154.168 15.7329 155.017 15.8911 155.759 16.2076C156.5 16.5241 157.12 16.9739 157.62 17.5569C158.128 18.1398 158.511 18.8394 158.769 19.6556C159.028 20.4635 159.157 21.363 159.157 22.3541V23.8532H148.413V21.4546H155.621V21.1798C155.621 20.6801 155.53 20.2345 155.346 19.843C155.171 19.4433 154.905 19.1268 154.547 18.8936C154.189 18.6604 153.731 18.5438 153.173 18.5438C152.698 18.5438 152.29 18.6479 151.948 18.8561C151.607 19.0643 151.328 19.3558 151.111 19.7306C150.903 20.1054 150.745 20.5468 150.637 21.0548C150.537 21.5546 150.487 22.1042 150.487 22.7039V23.2036C150.487 23.745 150.562 24.2447 150.711 24.7028C150.87 25.1608 151.09 25.5564 151.374 25.8896C151.665 26.2227 152.015 26.4809 152.423 26.6641C152.839 26.8474 153.31 26.939 153.835 26.939C154.484 26.939 155.088 26.814 155.646 26.5642C156.212 26.306 156.7 25.9187 157.108 25.4024L158.857 27.3013C158.574 27.7094 158.186 28.1008 157.695 28.4756C157.212 28.8504 156.629 29.1585 155.946 29.4001C155.263 29.6333 154.484 29.7499 153.61 29.7499ZM165.041 27.9759L168.626 15.9828H172.486L167.052 31.5363C166.935 31.8778 166.777 32.2443 166.577 32.6357C166.386 33.0271 166.123 33.3978 165.79 33.7476C165.466 34.1057 165.053 34.3972 164.554 34.6221C164.062 34.8469 163.458 34.9594 162.742 34.9594C162.401 34.9594 162.122 34.9385 161.905 34.8969C161.689 34.8553 161.43 34.797 161.13 34.722V32.086C161.222 32.086 161.318 32.086 161.418 32.086C161.518 32.0943 161.614 32.0985 161.705 32.0985C162.18 32.0985 162.567 32.0444 162.867 31.9361C163.167 31.8278 163.408 31.6613 163.592 31.4364C163.775 31.2198 163.921 30.9367 164.029 30.5869L165.041 27.9759ZM163.542 15.9828L166.477 25.7771L166.99 29.5874L164.541 29.8498L159.681 15.9828H163.542Z" fill="#E1E1E6"/>
</svg>
